<svg height="511pt" viewBox="1 1 511.9993 511" width="511pt" fill="white" xmlns="http://www.w3.org/2000/svg"><path d="m230 160.5c0 5.523438-4.476562 10-10 10s-10-4.476562-10-10 4.476562-10 10-10 10 4.476562 10 10zm0 0"/><path d="m170 160.5c0 5.523438-4.476562 10-10 10s-10-4.476562-10-10 4.476562-10 10-10 10 4.476562 10 10zm0 0"/><path d="m110 160.5c0 5.523438-4.476562 10-10 10s-10-4.476562-10-10 4.476562-10 10-10 10 4.476562 10 10zm0 0"/><path d="m170 10.5c0 5.523438-4.476562 10-10 10s-10-4.476562-10-10 4.476562-10 10-10 10 4.476562 10 10zm0 0"/><path d="m2.929688 303.429688c-2.8593755 2.859374-3.714844 7.160156-2.167969 10.894531 1.546875 3.738281 5.195312 6.175781 9.238281 6.175781h150c12.253906 0 24.34375-1.390625 36.121094-4.121094-2.734375 11.792969-4.121094 23.878906-4.121094 36.121094 0 88.222656 71.773438 160 160 160h150c4.042969 0 7.691406-2.4375 9.238281-6.175781 1.546875-3.734375.691407-8.035157-2.167969-10.898438l-37.132812-37.132812c25.90625-29.265625 40.0625-66.460938 40.0625-105.792969 0-88.226562-71.777344-160-160-160-12.242188 0-24.328125 1.386719-36.121094 4.121094 2.734375-11.78125 4.121094-23.867188 4.121094-36.121094 0-71.890625-47.582031-132.597656-112.53125-152.8125-5.273438-1.640625-10.878906 1.304688-12.519531 6.578125s1.300781 10.878906 6.578125 12.519531c58.898437 18.332032 98.472656 72.066406 98.472656 133.714844 0 77.359375-62.738281 140-140 140h-125.859375l26.921875-26.917969c3.902344-3.90625 3.902344-10.242187-.003906-14.144531-26.476563-26.46875-41.058594-61.605469-41.058594-98.9375 0-61.648438 39.574219-115.382812 98.476562-133.714844 5.269532-1.640625 8.214844-7.246094 6.574219-12.519531s-7.246093-8.21875-12.519531-6.578125c-64.847656 20.183594-112.53125 80.816406-112.53125 152.8125 0 39.335938 14.152344 76.527344 40.0625 105.796875zm305.859374-84.097657c13.925782-4.53125 28.4375-6.832031 43.210938-6.832031 77.195312 0 140 62.804688 140 140 0 37.332031-14.582031 72.46875-41.0625 98.9375-1.875 1.875-2.929688 4.417969-2.929688 7.070312 0 2.652344 1.054688 5.195313 2.929688 7.070313l26.917969 26.921875h-125.855469c-77.195312 0-140-62.804688-140-140 0-14.773438 2.300781-29.289062 6.832031-43.214844 41.226563-16.316406 73.640625-48.730468 89.957031-89.953125zm0 0"/></svg>