<?xml version="1.0"?>
<svg xmlns="http://www.w3.org/2000/svg" viewBox="0 0 64 64" fill="white" width="512" height="512"><g id="outline"><path d="M11,5A1,1,0,0,0,9,5,3,3,0,0,1,6,8a1,1,0,0,0,0,2,3,3,0,0,1,3,3,1,1,0,0,0,2,0,3,3,0,0,1,3-3,1,1,0,0,0,0-2A3,3,0,0,1,11,5Zm-1,5.031A4.988,4.988,0,0,0,8.969,9,4.988,4.988,0,0,0,10,7.969,4.988,4.988,0,0,0,11.031,9,4.988,4.988,0,0,0,10,10.031Z"/><path d="M51,54a3,3,0,0,1-3-3,1,1,0,0,0-2,0,3,3,0,0,1-3,3,1,1,0,0,0,0,2,3,3,0,0,1,3,3,1,1,0,0,0,2,0,3,3,0,0,1,3-3,1,1,0,0,0,0-2Zm-4,2.031A4.988,4.988,0,0,0,45.969,55,4.988,4.988,0,0,0,47,53.969,4.988,4.988,0,0,0,48.031,55,4.988,4.988,0,0,0,47,56.031Z"/><path d="M61.9,28.566A1,1,0,0,0,61,28H58.229a13.416,13.416,0,0,0-3.42-10.609,12.838,12.838,0,0,0,3.9-2.684C62.088,11.326,62.005,3.324,62,2.984A1,1,0,0,0,61.016,2c-.338,0-8.341-.09-11.723,3.293a11.488,11.488,0,0,0-3.477,7.043A17.569,17.569,0,0,0,42.43,12,16.48,16.48,0,0,0,32,15.592a16.967,16.967,0,0,0-21.675.639A13.788,13.788,0,0,0,5.68,26.47,13.631,13.631,0,0,0,5.771,28H3a1,1,0,0,0-.781,1.625L5.72,34l-3.5,4.375A1,1,0,0,0,3,40H8.028a.952.952,0,0,0,.075.251l4,8.16a1,1,0,0,0,.774.549.852.852,0,0,0,.124.008,1.007,1.007,0,0,0,.763-.352c.119-.14,1.975-2.226,6.288-3.1l.454.41a11.913,11.913,0,0,0-6.213,3.372C10.912,52.674,11,60.676,11,61.016a1,1,0,0,0,.984.984h.164c1.21,0,8.4-.136,11.559-3.294A11.461,11.461,0,0,0,27.16,51.94l4.169,3.771a1,1,0,0,0,1.342,0l8.836-8a34.807,34.807,0,0,0,14.809-1.8.994.994,0,0,0,.654-.706L58.273,40H61a1,1,0,0,0,.781-1.625L58.28,34l3.5-4.375A1,1,0,0,0,61.9,28.566ZM59.319,9H56.414l3.468-3.468A24.925,24.925,0,0,1,59.319,9ZM53,5.309a20.651,20.651,0,0,1,5.468-1.191L53,9.586ZM54.414,11h4.277a6.819,6.819,0,0,1-1.4,2.293,10.582,10.582,0,0,1-4.088,2.551,15.778,15.778,0,0,0-2.12-1.515ZM50.707,6.707c.09-.09.192-.174.293-.259v5.138l-1.8,1.8q-.69-.3-1.407-.528A9.248,9.248,0,0,1,50.707,6.707Zm-39.033,11a14.886,14.886,0,0,1,19.652-.06,1,1,0,0,0,1.348,0A14.389,14.389,0,0,1,42.43,14a14.619,14.619,0,0,1,9.9,3.708,11.607,11.607,0,0,1,0,17.521l-2.582,2.337c-1.24.112-2.612.18-4.1.2l5.018-5.019a8.345,8.345,0,0,0,3.08-5.806,8.41,8.41,0,0,0-2.01-5.611l-1.481,1.345c.157.175,3.793,4.339-.965,8.622L42.866,37.72a72.633,72.633,0,0,1-13.641-1.884c-7.226-1.668-12.644-.658-16.155.656l-1.395-1.261a11.6,11.6,0,0,1,0-17.522ZM5.081,30H6.172a13.528,13.528,0,0,0,1.054,2.681Zm0,8,2.7-3.375A1,1,0,0,0,8,33.982a14.9,14.9,0,0,0,2.333,2.73l.723.653c-.44.22-.845.437-1.179.635ZM22.67,47.879l.545.492L21.586,50h-5.1C18.478,48.354,20.874,47.519,22.67,47.879ZM18,59.318a24.8,24.8,0,0,1-3.469.564L18,56.413Zm-4.883-.85A18.009,18.009,0,0,1,14.774,52h4.812Zm9.175-1.175A6.814,6.814,0,0,1,20,58.691V54.413l4.7-4.7.336.3C25.644,52.048,24.525,55.061,22.293,57.293ZM32,53.621l-9.335-8.444a28.033,28.033,0,0,1,8.11.768c3.021.7,5.672,1.18,8.061,1.49Zm23.164-9.428c-5.12,1.659-10.987,2.792-23.939-.2C21,41.637,15.471,44.641,13.311,46.332l-3.042-6.206c1.93-1.275,8.315-4.694,18.506-2.341,10.416,2.4,20.423,2.624,27.829.647ZM53.236,37.1l.439-.4A14.849,14.849,0,0,0,56,33.983a.993.993,0,0,0,.216.642l1.188,1.485A31.586,31.586,0,0,1,53.236,37.1Zm3.539-4.426A13.423,13.423,0,0,0,57.828,30h1.091Z"/><rect x="20" y="17" width="2" height="2"/><rect x="24" y="20" width="2" height="2"/><rect x="13" y="21" width="2" height="2"/></g></svg>
