<svg id="Layer_1" data-name="Layer 1" xmlns="http://www.w3.org/2000/svg" viewBox="0 0 576.1 921.41"><defs><style>.cls-1,.cls-3,.cls-4,.cls-5{fill:none;}.cls-2{fill:#fff;}.cls-3{stroke:#000;stroke-width:0;}.cls-3,.cls-4,.cls-5{stroke-linecap:round;}.cls-3,.cls-5{stroke-linejoin:round;}.cls-4,.cls-5{stroke:#fff;stroke-width:13.88px;}.cls-4{stroke-miterlimit:10;}</style></defs><title>nktopus-final-solo</title><polygon class="cls-1" points="170.58 223.61 170.58 223.6 170.58 223.6 170.58 223.61"/><path class="cls-1" d="M935.39,358.42a1.52,1.52,0,0,0,.56,2.08l7.51,4.34,11.76,6.78a1.53,1.53,0,0,0,2.08-.55l3-5.12L938.34,353.3Z" transform="translate(-916.13 -79.53)"/><rect class="cls-1" x="978.5" y="298.42" width="7.43" height="8.37" transform="translate(-687.07 922.42) rotate(-60)"/><path class="cls-1" d="M953.57,330a1.53,1.53,0,0,0-2.08.55l-2.19,3.8a1.52,1.52,0,0,0,.56,2.08l11.62,6.71-3.91-10.83Z" transform="translate(-916.13 -79.53)"/><path class="cls-1" d="M965.89,353.14,946.62,342a1.52,1.52,0,0,0-2.08.55l-2.19,3.8a1.53,1.53,0,0,0,.55,2.08l19.27,11.13a1.53,1.53,0,0,0,2.08-.56l2.19-3.8A1.53,1.53,0,0,0,965.89,353.14Z" transform="translate(-916.13 -79.53)"/><path class="cls-1" d="M984.36,324.19l2.95-5.11a1.53,1.53,0,0,0-.55-2.08l-19.28-11.13a1.52,1.52,0,0,0-2.07.56l-.58,1,1,6.08Z" transform="translate(-916.13 -79.53)"/><path class="cls-1" d="M969.13,347.53a1.52,1.52,0,0,0,2.08-.56l2.19-3.8a1.52,1.52,0,0,0-.56-2.08l-6.11-3.53-3.43,6.6Z" transform="translate(-916.13 -79.53)"/><path class="cls-1" d="M976.08,335.48a1.53,1.53,0,0,0,2.08-.55l2.2-3.81a1.52,1.52,0,0,0-.56-2.07l-12.62-7.29,1.55,9.48Z" transform="translate(-916.13 -79.53)"/><path class="cls-1" d="M923.62,395.89a7,7,0,0,0-.92,3.39l-.05,6.49,5.6-3.28a6.83,6.83,0,0,0,2.48-2.5l4.14-7.17A8.06,8.06,0,0,1,942.25,380l3.65-6.31-7.11-4.11Z" transform="translate(-916.13 -79.53)"/><path class="cls-1" d="M1020.45,279.65l24.32,14,3.1-5.36-24.32-14Z" transform="translate(-916.13 -79.53)"/><path class="cls-1" d="M1103.53,250.16l.18.1Z" transform="translate(-916.13 -79.53)"/><path class="cls-1" d="M1050.38,296.93l24.32,14,3.1-5.36-24.32-14Z" transform="translate(-916.13 -79.53)"/><path class="cls-1" d="M1056.72,286,1081,300l3.71-6.44-12.16-7a3.24,3.24,0,0,1,3.25-5.61l12.15,7,3.72-6.44-12.16-7a3.24,3.24,0,0,1,3.24-5.61l12.16,7,3.72-6.44-24.32-14Z" transform="translate(-916.13 -79.53)"/><path class="cls-1" d="M1077.59,249.81l24.32,14,3.09-5.36-24.31-14C1080.3,245.11,1078.12,248.9,1077.59,249.81Z" transform="translate(-916.13 -79.53)"/><path class="cls-1" d="M1075.07,241.21l-24.32-14-3.09,5.36,24.32,14Z" transform="translate(-916.13 -79.53)"/><path class="cls-1" d="M1029,252a3.24,3.24,0,1,1,5.62,3.24l-7.78,13.47,24.32,14,3.71-6.44-12.16-7a3.24,3.24,0,0,1,3.24-5.61l12.16,7,3.72-6.44-12.16-7a3.24,3.24,0,1,1,3.24-5.61l12.16,7,3.72-6.44-24.32-14-2.29,4a3.24,3.24,0,1,1-5.61-3.24l2.91-5.05a5.2,5.2,0,0,1,1.25-1.46,5,5,0,0,1,.62-1.78l3.84-6.65-10.32-6L1017,248.91l3.63,2.09a3.23,3.23,0,0,1,1.18,4.42L1011,274.17l3.89,2.24,3.84-6.65a5,5,0,0,1,1.23-1.42,5.28,5.28,0,0,1,.64-1.82Z" transform="translate(-916.13 -79.53)"/><rect class="cls-1" x="997.12" y="256.68" width="18.4" height="8.37" transform="translate(-638.89 922.4) rotate(-60)"/><path d="M1086.18,304.06Z" transform="translate(-916.13 -79.53)"/><path d="M1086.54,303.44c.06-.12.12-.22.17-.31h0Z" transform="translate(-916.13 -79.53)"/><path d="M1086.54,303.44c-.13.21-.26.44-.36.62Z" transform="translate(-916.13 -79.53)"/><path d="M1105.16,251.1h0Z" transform="translate(-916.13 -79.53)"/><path class="cls-2" d="M1120.84,244.44l-8.74-5a3.24,3.24,0,1,0-3.24,5.61l7.76,4.49-3.56,6.16-9.32-5.38,1.42.82-77.23-44.59,3.56-6.16,64.27,37.1a3.24,3.24,0,1,0,3.24-5.61l-65.24-37.67a5.36,5.36,0,0,0-7.32,2l-4.68,8.11a5.35,5.35,0,0,0,2,7.32l5.49,3.17-17.86,30.94-3.62-2.1a3.25,3.25,0,0,0-4.43,1.19L992.48,263.5l-8.09-4.67a5.38,5.38,0,0,0-7.32,2l-11.69,20.26a6.53,6.53,0,0,0,2.39,8.93l7.07,4.08-3.72,6.43-.4-.23a8,8,0,0,0-7.12-.4l1.23,7.56.58-1a1.52,1.52,0,0,1,2.07-.56L986.76,317a1.53,1.53,0,0,1,.55,2.08l-2.95,5.11L965.83,313.5l1.35,8.26,12.62,7.29a1.52,1.52,0,0,1,.56,2.07l-2.2,3.81a1.53,1.53,0,0,1-2.08.55l-7.35-4.24.31,1.87-2.31,4.45,6.11,3.53a1.52,1.52,0,0,1,.56,2.08l-2.19,3.8a1.52,1.52,0,0,1-2.08.56l-5.83-3.37-.85,1.64-1-2.69-11.62-6.71a1.52,1.52,0,0,1-.56-2.08l2.19-3.8a1.53,1.53,0,0,1,2.08-.55l4,2.31L952,316.74l-1.33,2.3a7.89,7.89,0,0,0-1,4.91,7.94,7.94,0,0,0-3.75,3.33l-2.19,3.8a8,8,0,0,0-1,4.91,8,8,0,0,0-3.73,3.34l-2.2,3.8a8,8,0,0,0-1,2.87,3.38,3.38,0,0,0-1.43,1.32l-4.53,7.86a8,8,0,0,0,2.93,10.93l.46.27L918,392.64a13.34,13.34,0,0,0-1.79,6.6l-.09,12.19a3.25,3.25,0,0,0,4.88,2.82l10.52-6.17a13.5,13.5,0,0,0,4.82-4.85l5.42-9.39a3.25,3.25,0,0,0-1.19-4.43,1.58,1.58,0,1,1,1.58-2.73,3.25,3.25,0,0,0,4.43-1.19l4.92-8.52.47.27a8,8,0,0,0,10.93-2.93l4.54-7.86a3.32,3.32,0,0,0,.43-1.9,8,8,0,0,0,2-2.29l2.2-3.8a8,8,0,0,0,1-4.91,7.92,7.92,0,0,0,3.74-3.34l2.19-3.8a8,8,0,0,0,1-4.91,8,8,0,0,0,3.74-3.33l2.2-3.81a8.06,8.06,0,0,0,1-2.86,3.28,3.28,0,0,0,1.43-1.33l4.54-7.85A8,8,0,0,0,990,311.39l-.4-.23,3.71-6.44,9.55,5.51a6.54,6.54,0,0,0,8.92-2.39l1.16-2a1.18,1.18,0,0,1,1.62-.43l18.83,10.87a3.24,3.24,0,1,0,3.24-5.61l-18.83-10.88a7.69,7.69,0,0,0-10.48,2.81c-1.21,2.1-1.16,2.06-1.22,2-36.85-21.27-35.16-20.25-35.11-20.33L982.12,265l94.16,54.36-5.24,9.07a1.81,1.81,0,0,1-2.48.66l-18.83-10.87a3.24,3.24,0,1,0-3.24,5.61l18.83,10.88a8.3,8.3,0,0,0,11.34-3l5.8-10a5.36,5.36,0,0,0-2.14-7.43l3.84-6.65a5,5,0,0,0,.62-1.78,5.23,5.23,0,0,0,1.25-1.46c.36-.63.57-1,.68-1.18h0l0-.1,18.14-31.41a5.38,5.38,0,0,0,.64-1.81,4.85,4.85,0,0,0,1.22-1.43l3.85-6.65a5.36,5.36,0,0,0,7.49-1.86l4.69-8.11A5.36,5.36,0,0,0,1120.84,244.44ZM942.25,380a8.06,8.06,0,0,0-7.38,12.78L930.73,400a6.83,6.83,0,0,1-2.48,2.5l-5.6,3.28.05-6.49a7,7,0,0,1,.92-3.39l15.17-26.27,7.11,4.11Zm15-9a1.53,1.53,0,0,1-2.08.55l-11.76-6.78L936,360.5a1.52,1.52,0,0,1-.56-2.08l3-5.12L960.25,366Zm9.14-15.85-2.19,3.8a1.53,1.53,0,0,1-2.08.56L942.9,348.45a1.53,1.53,0,0,1-.55-2.08l2.19-3.8a1.52,1.52,0,0,1,2.08-.55l19.27,11.12A1.53,1.53,0,0,1,966.44,355.22Zm14-57.92,7.25,4.18L984,307.92l-7.24-4.19Zm123.26-47-.18-.1Zm-53-23.09,24.32,14-3.09,5.36-24.32-14Zm-52.66,39.57,9.2-15.93,7.25,4.18-9.2,15.94Zm20.59,3-3.84,6.65-3.89-2.24,10.82-18.75a3.23,3.23,0,0,0-1.18-4.42l-3.63-2.09L1034.82,218l10.32,6-3.84,6.65a5,5,0,0,0-.62,1.78,5.2,5.2,0,0,0-1.25,1.46l-2.91,5.05a3.24,3.24,0,1,0,5.61,3.24l2.29-4,24.32,14-3.72,6.44-12.16-7a3.24,3.24,0,1,0-3.24,5.61l12.16,7-3.72,6.44-12.16-7a3.24,3.24,0,0,0-3.24,5.61l12.16,7-3.71,6.44-24.32-14,7.78-13.47A3.24,3.24,0,1,0,1029,252l-8.4,14.55a5.28,5.28,0,0,0-.64,1.82A5,5,0,0,0,1018.68,269.76Zm26.09,23.93-24.32-14,3.1-5.36,24.32,14ZM1074.7,311l-24.32-14,3.1-5.36,24.32,14ZM1095,275.9l-12.16-7a3.24,3.24,0,0,0-3.24,5.61l12.16,7L1088,288l-12.15-7a3.24,3.24,0,0,0-3.25,5.61l12.16,7L1081,300l-24.32-14,17.63-30.54,24.32,14Zm7-12-24.32-14c.53-.91,2.71-4.7,3.1-5.36l24.31,14Z" transform="translate(-916.13 -79.53)"/><path d="M1105.18,251.11Z" transform="translate(-916.13 -79.53)"/><path d="M1086.71,303.13l.07-.12v0l0,.1Z" transform="translate(-916.13 -79.53)"/><path class="cls-3" d="M1086.72,303.13l0-.1" transform="translate(-916.13 -79.53)"/><path class="cls-4" d="M1337.58,553.67c2.28,29.69,14.65,170.1,7.79,199.8s-10.62,104.92-4.56,139.33c6.18,35.13-21.34,45.6-19.19,90.53.41,8.49-9.39,13.78-16.16,8.65-18.54-14-15.33-73.23-10.15-98.37" transform="translate(-916.13 -79.53)"/><path class="cls-4" d="M1231.17,547.89s-2.29,116.5,13.7,187.3,25.13,125.64,9.14,153-52,52.73-34.27,54.82c8.2,1,40.18-1.22,56.19-16.77a74,74,0,0,0,21.48-42.62c1.67-11.89-3.43-74-5.46-92-3.35-29.59-29-139.62-3.89-249.27" transform="translate(-916.13 -79.53)"/><path class="cls-4" d="M1337.91,866.37c8.71,66.43,53,70.92,64.37,72,19.77,1.94,2.67-23.78-11.41-49.93-9.68-18-18.08-61.92-8.95-109.89s30-115,12.34-206.49" transform="translate(-916.13 -79.53)"/><circle class="cls-2" cx="375.46" cy="274.21" r="9.04"/><circle class="cls-2" cx="430.48" cy="274.21" r="9.04"/><path class="cls-5" d="M1023.05,310.31c-.3,7.32-.1,12.59-.71,20.53-3.82,50-15.08,52.88-22.44,118.62-11.19,100,6.47,173.8,91.38,166.73,77-6.42,92.17-92.83,92.17-136.23,3.08-33.83,31.51-58.15,40.86-66.84,6-5.6,32-22.84,0-61.67s-57.1-66.24-57.1-127.91c0,0-1.18-135.46,157.61-137.06,160.47-1.61,148.23,124.2,146.19,150.76-2.29,29.7-29.7,95.94-61.68,121.06s1.32,43.11,13.71,57.11c12.2,13.79,29.69,36.55,29.69,111.92S1424.9,626.68,1430.06,724c5.88,110.79,61.5,134.59,54.65,143.73s-61.87,27-82.23-73.1c-8.35-41.06-10.66-64.34-10.66-64.34" transform="translate(-916.13 -79.53)"/><path class="cls-5" d="M992.26,262.19c-6-10.4-12.81-12.49-20.81-8.3-31.8,16.63,17.63,85-9.62,93,.59-4.67-29.38-66-22.35-88.83,9.14-29.69,41.28-32.47,48.13-32.47,13.27,0,21.29,4.39,26.93,14.62" transform="translate(-916.13 -79.53)"/><path class="cls-5" d="M1238,493.07c-6.85,114.21-66.69,163.33-138.33,172.41-37.92,4.81-93.35,4.85-130.25-71.74-35.27-73.2,4.3-189.51,24.86-246.62,5-13.9,8-24.88,8.56-36.89" transform="translate(-916.13 -79.53)"/><path class="cls-4" d="M1296,511.48s.8-6.38,4.54-18.71" transform="translate(-916.13 -79.53)"/><line class="cls-4" x1="466.57" y1="449.78" x2="464.39" y2="441.76"/><path class="cls-4" d="M1198.42,176.67c-7.22,17.37,21.64,7,31.52-9.88s2.94-34.15-11-20.15" transform="translate(-916.13 -79.53)"/><path class="cls-4" d="M1388.05,120.64c-26.25-7.26-3.06,37,23.26,48.76s48.19-4,24.58-23" transform="translate(-916.13 -79.53)"/></svg>