<?xml version="1.0" encoding="iso-8859-1"?>
<!-- Generator: Adobe Illustrator 21.0.0, SVG Export Plug-In . SVG Version: 6.00 Build 0)  -->
<svg xmlns="http://www.w3.org/2000/svg" xmlns:xlink="http://www.w3.org/1999/xlink" version="1.1" id="Capa_1" x="0px" y="0px" viewBox="0 0 512.013 512.013" style="enable-background:new 0 0 512.013 512.013;" xml:space="preserve" width="512" fill="white" height="512">
<g>
	<path d="M489.766,118.01l-20.214-11.671c-3.587-2.072-8.174-0.842-10.245,2.745c-2.071,3.587-0.842,8.174,2.745,10.245   l17.96,10.369l-8.233,14.261c-77.231-44.589,94.053,54.3-197.006-113.742l8.233-14.261l148.736,85.873   c3.587,2.071,8.174,0.841,10.245-2.745c2.071-3.587,0.842-8.174-2.745-10.245L288.251,1.665   c-5.932-3.425-13.508-1.397-16.934,4.538l-10.836,18.769c-3.427,5.933-1.398,13.508,4.537,16.935l12.71,7.338l-41.332,71.59   l-8.383-4.84c-3.588-2.072-8.174-0.842-10.245,2.745l-25.042,43.373l-18.722-10.809c-5.921-3.417-13.518-1.381-16.934,4.538   l-27.068,46.884c-4.178,7.236-1.703,16.473,5.533,20.651l16.365,9.448l-8.596,14.889l-0.926-0.535   c-8.841-5.104-20.19-2.064-25.296,6.778l-10.5,18.186c-0.793,1.376-1.109,2.899-1.001,4.379c-1.834,1.441-3.395,3.234-4.596,5.315   l-5.078,8.795c-2.062,3.571-2.795,7.551-2.354,11.363c-3.522,1.524-6.602,4.149-8.664,7.72l-5.078,8.796   c-2.011,3.483-2.821,7.433-2.366,11.357c-3.626,1.567-6.642,4.244-8.652,7.727l-5.078,8.795c-1.216,2.107-1.97,4.355-2.293,6.628   c-1.379,0.671-2.548,1.747-3.306,3.071l-10.497,18.18c-5.105,8.843-2.064,20.19,6.778,25.296l1.083,0.625l-35.092,60.782   c-2.675,4.633-4.109,9.91-4.146,15.259l-0.198,28.219c-0.04,5.812,6.282,9.464,11.295,6.521l24.339-14.281   c4.615-2.708,8.468-6.588,11.142-11.221l12.544-21.728c2.071-3.587,0.842-8.174-2.745-10.245c-1.745-1.007-2.345-3.247-1.337-4.992   c1.008-1.744,3.247-2.344,4.992-1.337c3.586,2.069,8.174,0.842,10.245-2.745l11.394-19.735l1.083,0.625   c8.899,5.138,20.223,2.008,25.296-6.778l10.5-18.186c0.794-1.378,1.112-2.903,1.004-4.381c1.833-1.44,3.392-3.232,4.593-5.312   l5.078-8.795c2.06-3.568,2.793-7.544,2.355-11.352c3.63-1.567,6.65-4.245,8.663-7.732l5.078-8.795   c2.062-3.572,2.795-7.552,2.354-11.364c3.522-1.524,6.603-4.148,8.664-7.719l5.078-8.796c1.216-2.106,1.97-4.355,2.293-6.628   c1.379-0.671,2.548-1.747,3.307-3.071l10.497-18.18c5.105-8.843,2.064-20.19-6.778-25.296l-0.926-0.535l8.596-14.889l22.09,12.754   c7.219,4.168,16.483,1.687,20.651-5.533l2.675-4.634c0.758-1.312,2.438-1.765,3.752-1.005l43.587,25.165   c3.586,2.071,8.173,0.842,10.245-2.745c2.071-3.587,0.842-8.174-2.745-10.245l-43.587-25.165   c-8.475-4.893-19.35-1.979-24.243,6.496c-2.813,4.872-2.686,4.764-2.835,4.677c-85.272-49.232-81.348-46.869-81.246-47.043   l25.767-44.63c193.605,111.778,16.207,9.358,217.896,125.802l-12.12,20.992c-1.161,2.011-3.728,2.695-5.734,1.536l-43.587-25.165   c-3.587-2.072-8.174-0.842-10.245,2.745c-2.071,3.587-0.842,8.174,2.745,10.245l43.587,25.165   c9.194,5.308,20.923,2.159,26.225-7.027l13.421-23.245c3.195-5.533,1.944-13.194-4.953-17.175l8.892-15.402   c0.745-1.289,1.224-2.682,1.432-4.112c1.135-0.912,2.123-2.044,2.893-3.379c9.177-15.894-23.125,40.054,43.69-75.673   c0.772-1.337,1.258-2.761,1.48-4.203c1.118-0.88,2.091-1.982,2.845-3.288l8.892-15.401c6.81,3.932,14.129,1.279,17.35-4.298   l10.836-18.77C497.729,129.012,495.701,121.436,489.766,118.01z M76.705,353.89l5.078-8.795c0.973-1.685,3.129-2.255,4.806-1.288   l44.599,25.75c1.68,0.97,2.258,3.126,1.288,4.806l-5.078,8.795c-0.969,1.678-3.118,2.262-4.806,1.288l-44.6-25.75   C76.313,357.726,75.736,355.569,76.705,353.89z M76.491,431.792c-7.125-0.776-14.39,2.616-18.199,9.214   c-3.81,6.599-3.117,14.582,1.12,20.368l-9.582,16.597c-1.378,2.388-3.364,4.387-5.742,5.783l-12.952,7.599l0.105-15.017   c0.019-2.757,0.758-5.476,2.137-7.864L68.47,407.69c5.754,3.322,10.698,6.177,16.452,9.499L76.491,431.792z M111.302,411.037   c-0.97,1.68-3.124,2.257-4.806,1.288c-50.754-29.303-6.909-3.989-44.6-25.75c-1.68-0.97-2.257-3.126-1.288-4.806l6.837-11.842   l50.692,29.268L111.302,411.037z M148.572,346.482l-5.078,8.795c-0.969,1.68-3.125,2.258-4.806,1.288l-44.599-25.75   c-1.682-0.971-2.26-3.122-1.288-4.806l5.078-8.796c0.972-1.684,3.128-2.255,4.806-1.288l44.599,25.75   C148.964,342.646,149.542,344.802,148.572,346.482z M164.668,318.603l-5.078,8.796c-0.97,1.68-3.125,2.257-4.806,1.288   l-44.599-25.75c-1.681-0.971-2.26-3.121-1.288-4.806l5.078-8.795c0.97-1.68,3.119-2.261,4.806-1.288   c14.324,8.27,30.596,17.665,44.61,25.755C165.063,314.777,165.636,316.927,164.668,318.603z M180.764,290.724l-6.837,11.842   c-4.892-2.825-46.125-26.631-50.692-29.268l6.837-11.842c0.97-1.68,3.125-2.257,4.806-1.288c3.467,2.002,21.22,12.252,44.6,25.75   C181.157,286.888,181.734,289.044,180.764,290.724z M173.06,264.893l-16.767-9.68l8.596-14.889l16.767,9.68L173.06,264.893z    M429.866,190.801l-28.138-16.245c-3.587-2.072-8.174-0.842-10.245,2.745c-2.071,3.587-0.842,8.174,2.745,10.245l28.138,16.245   l-8.601,14.898l-28.138-16.246c-3.587-2.072-8.174-0.843-10.245,2.745c-2.071,3.587-0.842,8.174,2.745,10.245l28.138,16.246   l-8.601,14.897l-56.275-32.491c10.996-19.046,30.942-53.593,40.803-70.673l56.275,32.491L429.866,190.801z M383.861,110.521   c-4.538,7.86-2.675,4.633-7.16,12.402l-56.276-32.491l7.16-12.402L383.861,110.521z M257.462,199.488l7.16-12.402   c15.143,8.743,43.744,25.256,56.276,32.491c-1.096,1.899-6.313,10.934-7.16,12.401   C290.141,218.355,265.478,204.116,257.462,199.488z M290.718,56.744l23.877,13.786l-8.891,15.401   c-0.745,1.29-1.225,2.683-1.433,4.115c-1.135,0.912-2.123,2.043-2.893,3.377l-6.746,11.685c-2.071,3.587-0.842,8.174,2.745,10.245   c3.586,2.071,8.173,0.842,10.245-2.745l5.303-9.185c42.011,24.255,41.158,23.762,56.276,32.491l-8.601,14.897l-28.138-16.245   c-3.587-2.072-8.174-0.842-10.245,2.745c-2.071,3.587-0.842,8.174,2.745,10.245l28.138,16.245l-8.601,14.898l-28.138-16.245   c-3.587-2.072-8.174-0.842-10.245,2.745c-2.071,3.587-0.842,8.174,2.745,10.245l28.138,16.245   c-6.082,10.535-3.79,6.565-8.601,14.898l-56.275-32.491l18-31.178c2.071-3.587,0.842-8.174-2.745-10.245   c-3.587-2.072-8.174-0.843-10.245,2.745l-19.444,33.677c-0.763,1.321-1.261,2.745-1.487,4.208c-1.115,0.879-2.085,1.98-2.837,3.283   l-8.892,15.402l-8.999-5.196l25.042-43.373c2.07-3.585,0.842-8.174-2.745-10.245l-8.383-4.84L290.718,56.744z M227.007,132.734   l16.767,9.68l-21.292,36.878l-16.766-9.68L227.007,132.734z M326.728,239.478c1.094-1.895,6.311-10.931,7.16-12.402   c8.846,5.108,47.45,27.396,56.275,32.491l-7.16,12.402C335.61,244.607,353.487,254.928,326.728,239.478z M445.967,162.914   l-56.276-32.491c1.22-2.114,6.276-10.871,7.16-12.402l56.276,32.491L445.967,162.914z"/>
</g>















</svg>
